<svg width="244" height="101" viewBox="0 0 244 101" fill="none" xmlns="http://www.w3.org/2000/svg">
<path d="M38.875 26.2979L33.8848 28.2803C33.0872 25.7738 31.7542 23.8483 29.8857 22.5039C28.0173 21.1595 25.7728 20.4873 23.1523 20.4873C21.7396 20.4873 20.4749 20.7152 19.3584 21.1709C18.2646 21.6038 17.2962 22.2077 16.4531 22.9824C15.6328 23.7572 14.9264 24.6572 14.334 25.6826C13.7643 26.708 13.2972 27.8018 12.9326 28.9639C12.568 30.126 12.306 31.3337 12.1465 32.5869C11.987 33.8174 11.9072 35.0137 11.9072 36.1758C11.9072 37.429 11.9756 38.6937 12.1123 39.9697C12.249 41.2458 12.4769 42.4762 12.7959 43.6611C13.1377 44.8232 13.582 45.917 14.1289 46.9424C14.6758 47.945 15.3594 48.8223 16.1797 49.5742C17.0228 50.3262 18.014 50.9186 19.1533 51.3516C20.3154 51.7845 21.6484 52.001 23.1523 52.001C24.36 52.001 25.5107 51.8187 26.6045 51.4541C27.6982 51.0895 28.7008 50.5768 29.6123 49.916C30.5238 49.2552 31.3327 48.4691 32.0391 47.5576C32.7454 46.6462 33.3037 45.6322 33.7139 44.5156L38.7383 46.3613C37.9863 48.1615 36.9837 49.7223 35.7305 51.0439C34.5 52.3428 33.0986 53.4251 31.5264 54.291C29.9541 55.1341 28.2679 55.7607 26.4678 56.1709C24.6676 56.5811 22.8447 56.7861 20.999 56.7861C18.014 56.7861 15.2454 56.2848 12.6934 55.2822C10.1413 54.2568 7.93099 52.8327 6.0625 51.0098C4.2168 49.1641 2.76986 46.988 1.72168 44.4814C0.673503 41.9521 0.149414 39.1836 0.149414 36.1758C0.149414 33.1452 0.662109 30.3652 1.6875 27.8359C2.73568 25.3066 4.18262 23.1305 6.02832 21.3076C7.87402 19.4847 10.0729 18.0719 12.625 17.0693C15.1771 16.0667 17.9684 15.5654 20.999 15.5654C22.9131 15.5654 24.7816 15.7819 26.6045 16.2148C28.4274 16.625 30.1136 17.2744 31.6631 18.1631C33.2354 19.029 34.6367 20.1341 35.8672 21.4785C37.1204 22.8229 38.123 24.4294 38.875 26.2979ZM57.8447 6.98633C57.8447 7.85221 57.6738 8.67253 57.332 9.44727C57.013 10.222 56.5687 10.8942 55.999 11.4639C55.4294 12.0335 54.7572 12.4893 53.9824 12.8311C53.2077 13.1501 52.3874 13.3096 51.5215 13.3096C50.6556 13.3096 49.8353 13.1501 49.0605 12.8311C48.3086 12.4893 47.6478 12.0335 47.0781 11.4639C46.5085 10.8942 46.0527 10.222 45.7109 9.44727C45.3919 8.67253 45.2324 7.85221 45.2324 6.98633C45.2324 6.12044 45.3919 5.31152 45.7109 4.55957C46.0527 3.78483 46.5085 3.11263 47.0781 2.54297C47.6478 1.97331 48.3086 1.52897 49.0605 1.20996C49.8353 0.868164 50.6556 0.697266 51.5215 0.697266C52.3874 0.697266 53.2077 0.868164 53.9824 1.20996C54.7572 1.52897 55.4294 1.97331 55.999 2.54297C56.5687 3.11263 57.013 3.78483 57.332 4.55957C57.6738 5.31152 57.8447 6.12044 57.8447 6.98633ZM57.332 56H45.7451V16.5566H57.332V56ZM81.9072 56H70.3203V21.1025H63.1426V16.5225H70.3203V1.99609H81.9072V16.5225H93.8701V21.1025H81.9072V56ZM111.37 6.98633C111.37 7.85221 111.199 8.67253 110.857 9.44727C110.538 10.222 110.094 10.8942 109.524 11.4639C108.955 12.0335 108.283 12.4893 107.508 12.8311C106.733 13.1501 105.913 13.3096 105.047 13.3096C104.181 13.3096 103.361 13.1501 102.586 12.8311C101.834 12.4893 101.173 12.0335 100.604 11.4639C100.034 10.8942 99.5781 10.222 99.2363 9.44727C98.9173 8.67253 98.7578 7.85221 98.7578 6.98633C98.7578 6.12044 98.9173 5.31152 99.2363 4.55957C99.5781 3.78483 100.034 3.11263 100.604 2.54297C101.173 1.97331 101.834 1.52897 102.586 1.20996C103.361 0.868164 104.181 0.697266 105.047 0.697266C105.913 0.697266 106.733 0.868164 107.508 1.20996C108.283 1.52897 108.955 1.97331 109.524 2.54297C110.094 3.11263 110.538 3.78483 110.857 4.55957C111.199 5.31152 111.37 6.12044 111.37 6.98633ZM110.857 56H99.2705V16.5566H110.857V56ZM151.839 56H118.411V51.4199L139.09 21.1025H118.411V16.5225H151.839V21.1025L131.16 51.4199H151.839V56ZM167.527 37.2695C168.94 37.5885 170.353 37.8392 171.766 38.0215C173.178 38.2038 174.603 38.2949 176.038 38.2949C177.542 38.2949 178.932 38.1582 180.208 37.8848C181.507 37.5885 182.623 37.11 183.558 36.4492C184.515 35.7656 185.267 34.8656 185.813 33.749C186.36 32.6325 186.634 31.2425 186.634 29.5791C186.634 28.2347 186.451 27.0042 186.087 25.8877C185.722 24.7712 185.175 23.8141 184.446 23.0166C183.74 22.2191 182.863 21.6038 181.814 21.1709C180.766 20.7152 179.547 20.4873 178.157 20.4873C176.858 20.4873 175.685 20.7266 174.637 21.2051C173.611 21.6836 172.7 22.333 171.902 23.1533C171.128 23.9508 170.455 24.8851 169.886 25.9561C169.339 27.027 168.883 28.1436 168.519 29.3057C168.154 30.4678 167.892 31.6413 167.732 32.8262C167.573 34.0111 167.493 35.1276 167.493 36.1758C167.493 36.3581 167.493 36.5404 167.493 36.7227C167.493 36.9049 167.505 37.0872 167.527 37.2695ZM195.999 29.4766C195.999 31.0944 195.737 32.5413 195.213 33.8174C194.689 35.0706 193.971 36.1758 193.06 37.1328C192.171 38.0898 191.134 38.8988 189.949 39.5596C188.764 40.2204 187.5 40.7673 186.155 41.2002C184.811 41.6104 183.421 41.9066 181.985 42.0889C180.573 42.2712 179.194 42.3623 177.85 42.3623C176.141 42.3623 174.454 42.2484 172.791 42.0205C171.128 41.7699 169.487 41.3825 167.869 40.8584C168.12 42.3623 168.519 43.7979 169.065 45.165C169.612 46.5094 170.341 47.6943 171.253 48.7197C172.164 49.7223 173.281 50.5199 174.603 51.1123C175.947 51.7048 177.531 52.001 179.354 52.001C180.561 52.001 181.712 51.8187 182.806 51.4541C183.899 51.0895 184.902 50.5768 185.813 49.916C186.725 49.2552 187.522 48.4691 188.206 47.5576C188.912 46.6462 189.482 45.6322 189.915 44.5156L194.905 46.3613C194.153 48.1615 193.117 49.7223 191.795 51.0439C190.496 52.3428 189.015 53.4251 187.352 54.291C185.711 55.1341 183.956 55.7607 182.088 56.1709C180.242 56.5811 178.408 56.7861 176.585 56.7861C173.577 56.7861 170.797 56.2848 168.245 55.2822C165.693 54.2568 163.494 52.8327 161.648 51.0098C159.803 49.1868 158.356 47.0107 157.308 44.4814C156.259 41.9521 155.735 39.1836 155.735 36.1758C155.735 33.168 156.259 30.3994 157.308 27.8701C158.356 25.3408 159.803 23.1647 161.648 21.3418C163.494 19.5189 165.693 18.1061 168.245 17.1035C170.797 16.0781 173.577 15.5654 176.585 15.5654C178.043 15.5654 179.536 15.668 181.062 15.873C182.589 16.0781 184.07 16.4085 185.506 16.8643C186.941 17.2972 188.297 17.8669 189.573 18.5732C190.849 19.2796 191.954 20.1569 192.889 21.2051C193.846 22.2305 194.598 23.4268 195.145 24.7939C195.714 26.1611 195.999 27.722 195.999 29.4766ZM243.577 33.373C243.577 36.0391 243.247 38.819 242.586 41.7129C241.948 44.6068 241.048 47.4437 239.886 50.2236C238.724 53.0036 237.334 55.6126 235.716 58.0508C234.098 60.5117 232.321 62.6309 230.384 64.4082L226.043 62.0498C226.658 60.9105 227.239 59.6344 227.786 58.2217C228.333 56.8089 228.823 55.3164 229.256 53.7441C229.712 52.1491 230.11 50.5085 230.452 48.8223C230.817 47.1361 231.113 45.4727 231.341 43.832C231.591 42.1686 231.774 40.5622 231.888 39.0127C232.024 37.4404 232.093 35.9821 232.093 34.6377C232.093 33.749 232.059 32.8034 231.99 31.8008C231.922 30.7754 231.774 29.7614 231.546 28.7588C231.341 27.7334 231.056 26.7536 230.691 25.8193C230.327 24.8851 229.837 24.0648 229.222 23.3584C228.629 22.652 227.9 22.0824 227.034 21.6494C226.191 21.2165 225.188 21 224.026 21C222.887 21 221.873 21.262 220.984 21.7861C220.096 22.2874 219.31 22.9596 218.626 23.8027C217.942 24.623 217.35 25.5687 216.849 26.6396C216.37 27.7106 215.971 28.8158 215.652 29.9551C215.356 31.0716 215.14 32.1768 215.003 33.2705C214.866 34.3643 214.798 35.3441 214.798 36.21V56H203.211V16.5225H207.654L212.952 25.7168C213.59 24.1901 214.388 22.8001 215.345 21.5469C216.302 20.2936 217.384 19.2227 218.592 18.334C219.799 17.4453 221.132 16.7617 222.591 16.2832C224.072 15.8047 225.667 15.5654 227.376 15.5654C230.11 15.5654 232.492 16.0098 234.52 16.8984C236.548 17.7871 238.234 19.029 239.578 20.624C240.923 22.1963 241.925 24.0762 242.586 26.2637C243.247 28.4284 243.577 30.7982 243.577 33.373ZM65.3984 81.1489L62.9033 82.1401C62.5046 80.8869 61.8381 79.9242 60.9038 79.252C59.9696 78.5798 58.8473 78.2437 57.5371 78.2437C56.8307 78.2437 56.1984 78.3576 55.6401 78.5854C55.0933 78.8019 54.609 79.1038 54.1875 79.4912C53.7773 79.8786 53.4242 80.3286 53.1279 80.8413C52.8431 81.354 52.6095 81.9009 52.4272 82.4819C52.245 83.063 52.1139 83.6668 52.0342 84.2935C51.9544 84.9087 51.9146 85.5068 51.9146 86.0879C51.9146 86.7145 51.9487 87.3468 52.0171 87.9849C52.0854 88.6229 52.1994 89.2381 52.3589 89.8306C52.5298 90.4116 52.752 90.9585 53.0254 91.4712C53.2988 91.9725 53.6406 92.4111 54.0508 92.7871C54.4723 93.1631 54.9679 93.4593 55.5376 93.6758C56.1187 93.8923 56.7852 94.0005 57.5371 94.0005C58.141 94.0005 58.7163 93.9093 59.2632 93.7271C59.8101 93.5448 60.3114 93.2884 60.7671 92.958C61.2228 92.6276 61.6273 92.2345 61.9805 91.7788C62.3337 91.3231 62.6128 90.8161 62.8179 90.2578L65.3301 91.1807C64.9541 92.0807 64.4528 92.8612 63.8262 93.522C63.2109 94.1714 62.5103 94.7126 61.7241 95.1455C60.938 95.5671 60.0949 95.8804 59.1948 96.0854C58.2948 96.2905 57.3833 96.3931 56.4604 96.3931C54.9679 96.3931 53.5837 96.1424 52.3076 95.6411C51.0316 95.1284 49.9264 94.4163 48.9922 93.5049C48.0693 92.582 47.3459 91.494 46.8218 90.2407C46.2977 88.9761 46.0356 87.5918 46.0356 86.0879C46.0356 84.5726 46.292 83.1826 46.8047 81.918C47.3288 80.6533 48.0522 79.5653 48.9751 78.6538C49.8979 77.7424 50.9974 77.036 52.2734 76.5347C53.5495 76.0334 54.9451 75.7827 56.4604 75.7827C57.4175 75.7827 58.3517 75.891 59.2632 76.1074C60.1746 76.3125 61.0177 76.6372 61.7925 77.0815C62.5786 77.5145 63.2793 78.0671 63.8945 78.7393C64.5212 79.4115 65.0225 80.2147 65.3984 81.1489ZM89.666 86.0879C89.666 87.1133 89.5293 88.076 89.2559 88.9761C88.9824 89.8761 88.6007 90.7078 88.1108 91.4712C87.6323 92.2345 87.0513 92.9238 86.3677 93.5391C85.6841 94.1429 84.9321 94.6556 84.1118 95.0771C83.3029 95.4987 82.4313 95.8234 81.4971 96.0513C80.5742 96.2791 79.6229 96.3931 78.6431 96.3931C77.6632 96.3931 76.7119 96.2791 75.7891 96.0513C74.8662 95.8234 73.9946 95.4987 73.1743 95.0771C72.3654 94.6556 71.6191 94.1429 70.9355 93.5391C70.252 92.9238 69.6652 92.2345 69.1753 91.4712C68.6968 90.7078 68.3208 89.8761 68.0474 88.9761C67.7739 88.0646 67.6372 87.1019 67.6372 86.0879C67.6372 85.0739 67.7739 84.1169 68.0474 83.2168C68.3208 82.3053 68.6968 81.4679 69.1753 80.7046C69.6652 79.9412 70.252 79.2576 70.9355 78.6538C71.6191 78.0386 72.3654 77.5202 73.1743 77.0986C73.9946 76.6771 74.8662 76.3524 75.7891 76.1245C76.7119 75.8966 77.6632 75.7827 78.6431 75.7827C79.6229 75.7827 80.5742 75.8966 81.4971 76.1245C82.4313 76.3524 83.3029 76.6771 84.1118 77.0986C84.9321 77.5202 85.6841 78.0386 86.3677 78.6538C87.0513 79.2576 87.6323 79.9412 88.1108 80.7046C88.6007 81.4679 88.9824 82.3053 89.2559 83.2168C89.5293 84.1169 89.666 85.0739 89.666 86.0879ZM83.7871 86.0879C83.7871 85.541 83.7529 84.9657 83.6846 84.3618C83.6276 83.7466 83.5251 83.1484 83.377 82.5674C83.2288 81.9749 83.0238 81.411 82.7617 80.8755C82.5111 80.3286 82.1978 79.8558 81.8218 79.457C81.4458 79.0469 80.9958 78.7222 80.4717 78.4829C79.9476 78.2323 79.3381 78.1069 78.6431 78.1069C77.9823 78.1069 77.3955 78.2323 76.8828 78.4829C76.3701 78.7336 75.9201 79.0697 75.5327 79.4912C75.1567 79.9014 74.8377 80.3799 74.5757 80.9268C74.325 81.4736 74.12 82.0433 73.9604 82.6357C73.8009 83.2168 73.687 83.8092 73.6187 84.4131C73.5503 85.0055 73.5161 85.5638 73.5161 86.0879C73.5161 86.612 73.5503 87.1759 73.6187 87.7798C73.687 88.3722 73.8009 88.9647 73.9604 89.5571C74.12 90.1496 74.325 90.7192 74.5757 91.2661C74.8377 91.8016 75.1567 92.2801 75.5327 92.7017C75.9201 93.1118 76.3701 93.4422 76.8828 93.6929C77.3955 93.9435 77.9823 94.0688 78.6431 94.0688C79.3267 94.0688 79.9305 93.9492 80.4546 93.71C80.9787 93.4593 81.4287 93.1289 81.8047 92.7188C82.1921 92.3086 82.5111 91.8358 82.7617 91.3003C83.0124 90.7648 83.2118 90.2008 83.3599 89.6084C83.5194 89.016 83.6276 88.4178 83.6846 87.814C83.7529 87.2101 83.7871 86.6348 83.7871 86.0879ZM113.506 84.6865C113.506 86.0195 113.341 87.4095 113.011 88.8564C112.692 90.3034 112.242 91.7218 111.661 93.1118C111.08 94.5018 110.385 95.8063 109.576 97.0254C108.767 98.2559 107.878 99.3154 106.91 100.204L104.739 99.0249C105.047 98.4552 105.337 97.8172 105.611 97.1108C105.884 96.4045 106.129 95.6582 106.346 94.8721C106.574 94.0745 106.773 93.2542 106.944 92.4111C107.126 91.568 107.274 90.7363 107.388 89.916C107.514 89.0843 107.605 88.2811 107.662 87.5063C107.73 86.7202 107.764 85.991 107.764 85.3188C107.764 84.8745 107.747 84.4017 107.713 83.9004C107.679 83.3877 107.605 82.8807 107.491 82.3794C107.388 81.8667 107.246 81.3768 107.063 80.9097C106.881 80.4425 106.636 80.0324 106.329 79.6792C106.032 79.326 105.668 79.0412 105.235 78.8247C104.813 78.6082 104.312 78.5 103.731 78.5C103.161 78.5 102.654 78.631 102.21 78.8931C101.766 79.1437 101.373 79.4798 101.031 79.9014C100.689 80.3115 100.393 80.7843 100.142 81.3198C99.9028 81.8553 99.7035 82.4079 99.5439 82.9775C99.3958 83.5358 99.2876 84.0884 99.2192 84.6353C99.1509 85.1821 99.1167 85.672 99.1167 86.105V96H93.3232V76.2612H95.5449L98.1938 80.8584C98.5129 80.0951 98.9116 79.4001 99.3901 78.7734C99.8687 78.1468 100.41 77.6113 101.014 77.167C101.618 76.7227 102.284 76.3809 103.013 76.1416C103.754 75.9023 104.551 75.7827 105.406 75.7827C106.773 75.7827 107.964 76.0049 108.978 76.4492C109.992 76.8936 110.835 77.5145 111.507 78.312C112.179 79.0981 112.68 80.0381 113.011 81.1318C113.341 82.2142 113.506 83.3991 113.506 84.6865ZM137.5 84.6865C137.5 86.0195 137.335 87.4095 137.005 88.8564C136.686 90.3034 136.236 91.7218 135.655 93.1118C135.074 94.5018 134.379 95.8063 133.57 97.0254C132.761 98.2559 131.872 99.3154 130.904 100.204L128.733 99.0249C129.041 98.4552 129.332 97.8172 129.605 97.1108C129.878 96.4045 130.123 95.6582 130.34 94.8721C130.568 94.0745 130.767 93.2542 130.938 92.4111C131.12 91.568 131.268 90.7363 131.382 89.916C131.508 89.0843 131.599 88.2811 131.656 87.5063C131.724 86.7202 131.758 85.991 131.758 85.3188C131.758 84.8745 131.741 84.4017 131.707 83.9004C131.673 83.3877 131.599 82.8807 131.485 82.3794C131.382 81.8667 131.24 81.3768 131.058 80.9097C130.875 80.4425 130.63 80.0324 130.323 79.6792C130.027 79.326 129.662 79.0412 129.229 78.8247C128.807 78.6082 128.306 78.5 127.725 78.5C127.155 78.5 126.648 78.631 126.204 78.8931C125.76 79.1437 125.367 79.4798 125.025 79.9014C124.683 80.3115 124.387 80.7843 124.136 81.3198C123.897 81.8553 123.698 82.4079 123.538 82.9775C123.39 83.5358 123.282 84.0884 123.213 84.6353C123.145 85.1821 123.111 85.672 123.111 86.105V96H117.317V76.2612H119.539L122.188 80.8584C122.507 80.0951 122.906 79.4001 123.384 78.7734C123.863 78.1468 124.404 77.6113 125.008 77.167C125.612 76.7227 126.278 76.3809 127.007 76.1416C127.748 75.9023 128.545 75.7827 129.4 75.7827C130.767 75.7827 131.958 76.0049 132.972 76.4492C133.986 76.8936 134.829 77.5145 135.501 78.312C136.173 79.0981 136.674 80.0381 137.005 81.1318C137.335 82.2142 137.5 83.3991 137.5 84.6865ZM146.062 86.6348C146.769 86.7943 147.475 86.9196 148.182 87.0107C148.888 87.1019 149.6 87.1475 150.318 87.1475C151.07 87.1475 151.765 87.0791 152.403 86.9424C153.052 86.7943 153.611 86.555 154.078 86.2246C154.556 85.8828 154.932 85.4328 155.206 84.8745C155.479 84.3162 155.616 83.6213 155.616 82.7896C155.616 82.1174 155.525 81.5021 155.342 80.9438C155.16 80.3856 154.887 79.9071 154.522 79.5083C154.169 79.1095 153.73 78.8019 153.206 78.5854C152.682 78.3576 152.072 78.2437 151.377 78.2437C150.728 78.2437 150.141 78.3633 149.617 78.6025C149.104 78.8418 148.649 79.1665 148.25 79.5767C147.863 79.9754 147.527 80.4425 147.242 80.978C146.968 81.5135 146.74 82.0718 146.558 82.6528C146.376 83.2339 146.245 83.8206 146.165 84.4131C146.085 85.0055 146.045 85.5638 146.045 86.0879C146.045 86.179 146.045 86.2702 146.045 86.3613C146.045 86.4525 146.051 86.5436 146.062 86.6348ZM160.298 82.7383C160.298 83.5472 160.167 84.2707 159.905 84.9087C159.643 85.5353 159.284 86.0879 158.829 86.5664C158.384 87.0449 157.866 87.4494 157.273 87.7798C156.681 88.1102 156.049 88.3836 155.376 88.6001C154.704 88.8052 154.009 88.9533 153.292 89.0444C152.585 89.1356 151.896 89.1812 151.224 89.1812C150.369 89.1812 149.526 89.1242 148.694 89.0103C147.863 88.8849 147.042 88.6912 146.233 88.4292C146.359 89.1812 146.558 89.8989 146.832 90.5825C147.105 91.2547 147.47 91.8472 147.925 92.3599C148.381 92.8612 148.939 93.2599 149.6 93.5562C150.272 93.8524 151.064 94.0005 151.976 94.0005C152.579 94.0005 153.155 93.9093 153.702 93.7271C154.249 93.5448 154.75 93.2884 155.206 92.958C155.661 92.6276 156.06 92.2345 156.402 91.7788C156.755 91.3231 157.04 90.8161 157.256 90.2578L159.751 91.1807C159.375 92.0807 158.857 92.8612 158.196 93.522C157.547 94.1714 156.806 94.7126 155.975 95.1455C155.154 95.5671 154.277 95.8804 153.343 96.0854C152.42 96.2905 151.503 96.3931 150.591 96.3931C149.087 96.3931 147.697 96.1424 146.421 95.6411C145.145 95.1284 144.046 94.4163 143.123 93.5049C142.2 92.5934 141.477 91.5054 140.953 90.2407C140.429 88.9761 140.167 87.5918 140.167 86.0879C140.167 84.584 140.429 83.1997 140.953 81.9351C141.477 80.6704 142.2 79.5824 143.123 78.6709C144.046 77.7594 145.145 77.0531 146.421 76.5518C147.697 76.0391 149.087 75.7827 150.591 75.7827C151.32 75.7827 152.067 75.834 152.83 75.9365C153.593 76.0391 154.334 76.2043 155.052 76.4321C155.77 76.6486 156.447 76.9334 157.085 77.2866C157.723 77.6398 158.276 78.0785 158.743 78.6025C159.222 79.1152 159.598 79.7134 159.871 80.397C160.156 81.0806 160.298 81.861 160.298 82.7383ZM182.122 81.1489L179.627 82.1401C179.228 80.8869 178.562 79.9242 177.627 79.252C176.693 78.5798 175.571 78.2437 174.261 78.2437C173.554 78.2437 172.922 78.3576 172.364 78.5854C171.817 78.8019 171.333 79.1038 170.911 79.4912C170.501 79.8786 170.148 80.3286 169.852 80.8413C169.567 81.354 169.333 81.9009 169.151 82.4819C168.969 83.063 168.838 83.6668 168.758 84.2935C168.678 84.9087 168.638 85.5068 168.638 86.0879C168.638 86.7145 168.672 87.3468 168.741 87.9849C168.809 88.6229 168.923 89.2381 169.083 89.8306C169.253 90.4116 169.476 90.9585 169.749 91.4712C170.022 91.9725 170.364 92.4111 170.774 92.7871C171.196 93.1631 171.692 93.4593 172.261 93.6758C172.842 93.8923 173.509 94.0005 174.261 94.0005C174.865 94.0005 175.44 93.9093 175.987 93.7271C176.534 93.5448 177.035 93.2884 177.491 92.958C177.946 92.6276 178.351 92.2345 178.704 91.7788C179.057 91.3231 179.336 90.8161 179.542 90.2578L182.054 91.1807C181.678 92.0807 181.176 92.8612 180.55 93.522C179.935 94.1714 179.234 94.7126 178.448 95.1455C177.662 95.5671 176.819 95.8804 175.918 96.0854C175.018 96.2905 174.107 96.3931 173.184 96.3931C171.692 96.3931 170.307 96.1424 169.031 95.6411C167.755 95.1284 166.65 94.4163 165.716 93.5049C164.793 92.582 164.069 91.494 163.545 90.2407C163.021 88.9761 162.759 87.5918 162.759 86.0879C162.759 84.5726 163.016 83.1826 163.528 81.918C164.052 80.6533 164.776 79.5653 165.699 78.6538C166.622 77.7424 167.721 77.036 168.997 76.5347C170.273 76.0334 171.669 75.7827 173.184 75.7827C174.141 75.7827 175.075 75.891 175.987 76.1074C176.898 76.3125 177.741 76.6372 178.516 77.0815C179.302 77.5145 180.003 78.0671 180.618 78.7393C181.245 79.4115 181.746 80.2147 182.122 81.1489ZM192.974 96H187.181V78.5513H183.592V76.2612H187.181V68.998H192.974V76.2612H198.956V78.5513H192.974V96Z" fill="#FFD600"/>
</svg>
