<svg width="35" height="35" viewBox="0 0 35 35" fill="none" xmlns="http://www.w3.org/2000/svg">
<path d="M17.5 35C27.165 35 35 27.165 35 17.5C35 7.83502 27.165 0 17.5 0C7.83502 0 0 7.83502 0 17.5C0 27.165 7.83502 35 17.5 35Z" fill="#F8F8F8"/>
<path fill-rule="evenodd" clip-rule="evenodd" d="M17.5 21.9832C22.4758 21.9832 24.7777 21.3449 25 18.7828C25 16.2225 23.3951 16.3871 23.3951 13.2457C23.3951 10.7919 21.0693 8 17.5 8C13.9307 8 11.6049 10.7919 11.6049 13.2457C11.6049 16.3871 10 16.2225 10 18.7828C10.2232 21.3546 12.5251 21.9832 17.5 21.9832Z" stroke="#FFC700" stroke-width="1.5" stroke-linecap="round" stroke-linejoin="round"/>
<path d="M19.6076 24.6371C18.4039 25.9737 16.5263 25.9895 15.3111 24.6371" stroke="#FFC700" stroke-width="1.5" stroke-linecap="round" stroke-linejoin="round"/>
<path d="M30 9.5C32.4853 9.5 34.5 7.48528 34.5 5C34.5 2.51472 32.4853 0.5 30 0.5C27.5147 0.5 25.5 2.51472 25.5 5C25.5 7.48528 27.5147 9.5 30 9.5Z" fill="#FFC700" stroke="white"/>
</svg>
