<svg width="35" height="35" viewBox="0 0 35 35" fill="none" xmlns="http://www.w3.org/2000/svg">
<path d="M17.5 35C27.165 35 35 27.165 35 17.5C35 7.83502 27.165 0 17.5 0C7.83502 0 0 7.83502 0 17.5C0 27.165 7.83502 35 17.5 35Z" fill="#F8F8F8"/>
<path d="M20.1943 21L17 17.2733V11H18.1429V16.72L21 20.06L20.1943 21Z" fill="#FFD600"/>
<path d="M17 8C15.801 8.00017 14.6143 8.24093 13.5101 8.70802C12.4058 9.17511 11.4066 9.85903 10.5714 10.7193V8H9.28571V13.1429H14.4286V11.8571H11.2657C12.4717 10.517 14.1091 9.64155 15.8933 9.38292C17.6776 9.12428 19.4961 9.49877 21.033 10.4413C22.5699 11.3839 23.7282 12.835 24.3065 14.5427C24.8849 16.2503 24.8469 18.1066 24.1991 19.7891C23.5514 21.4716 22.3347 22.8741 20.7605 23.753C19.1864 24.6319 17.354 24.9317 15.5818 24.6002C13.8097 24.2688 12.2095 23.3271 11.0594 21.9387C9.90919 20.5503 9.28164 18.8029 9.28571 17H8C8 18.78 8.52784 20.5201 9.51677 22.0001C10.5057 23.4802 11.9113 24.6337 13.5558 25.3149C15.2004 25.9961 17.01 26.1743 18.7558 25.8271C20.5016 25.4798 22.1053 24.6226 23.364 23.364C24.6226 22.1053 25.4798 20.5016 25.8271 18.7558C26.1743 17.01 25.9961 15.2004 25.3149 13.5558C24.6337 11.9113 23.4802 10.5057 22.0001 9.51677C20.5201 8.52784 18.78 8 17 8Z" fill="#FFC700"/>
</svg>
