<svg width="43" height="44" viewBox="0 0 43 44" fill="none" xmlns="http://www.w3.org/2000/svg">
<path d="M34.6884 35.4283C35.3333 35.2939 35.7171 34.6211 35.4258 34.0302C34.4482 32.0465 32.7819 30.3031 30.5991 29.0004C28.0053 27.4524 24.8272 26.6133 21.5578 26.6133C18.2884 26.6133 15.1103 27.4524 12.5165 29.0004C10.3338 30.3031 8.6674 32.0465 7.68979 34.0302C7.39858 34.6211 7.78233 35.2939 8.42722 35.4283L12.6319 36.3046C18.5193 37.5316 24.5964 37.5316 30.4838 36.3046L34.6884 35.4283Z" fill="#BABABA"/>
<circle cx="21.5577" cy="16.712" r="8.2511" fill="#BABABA"/>
<path d="M42.5 21.5C42.5 33.098 33.098 42.5 21.5 42.5C9.90202 42.5 0.5 33.098 0.5 21.5C0.5 9.90202 9.90202 0.5 21.5 0.5C33.098 0.5 42.5 9.90202 42.5 21.5Z" fill="#D9D9D9" fill-opacity="0.26" stroke="white"/>
</svg>
